<?xml version="1.0" encoding="UTF-8"?>
<!DOCTYPE svg PUBLIC "-//W3C//DTD SVG 1.1//EN" "http://www.w3.org/Graphics/SVG/1.1/DTD/svg11.dtd">
<svg xmlns="http://www.w3.org/2000/svg" version="1.1" width="873px" height="1143px" style="shape-rendering:geometricPrecision; text-rendering:geometricPrecision; image-rendering:optimizeQuality; fill-rule:evenodd; clip-rule:evenodd" xmlns:xlink="http://www.w3.org/1999/xlink">
<g><path style="opacity:0.534" fill="#367a44" d="M 591.5,13.5 C 486.465,15.3506 381.132,16.6839 275.5,17.5C 276.646,15.3328 278.479,13.9995 281,13.5C 384.39,13.5105 487.89,13.5105 591.5,13.5 Z"/></g>
<g><path style="opacity:1" fill="#227f34" d="M 591.5,13.5 C 645.211,14.2445 697.878,21.7445 749.5,36C 805.449,54.9521 842.282,92.7854 860,149.5C 861.462,156.476 862.795,163.476 864,170.5C 870.018,255.422 852.685,335.089 812,409.5C 775.723,468.897 723.889,508.23 656.5,527.5C 652.583,528.637 648.583,529.47 644.5,530C 724.087,544.7 768.587,592.2 778,672.5C 780.497,703.712 778.83,734.712 773,765.5C 759.434,841.586 731.434,911.586 689,975.5C 631.574,1053.34 555.074,1101.34 459.5,1119.5C 458.223,1118.1 456.557,1117.44 454.5,1117.5C 448.935,1119.02 443.268,1119.69 437.5,1119.5C 437.5,1120.5 437.5,1121.5 437.5,1122.5C 434.797,1122.04 432.13,1121.38 429.5,1120.5C 422.751,1121.95 415.918,1122.62 409,1122.5C 400.898,1122.19 392.898,1121.86 385,1121.5C 383.047,1124 380.714,1124.67 378,1123.5C 376.055,1124.86 373.888,1125.7 371.5,1126C 346.169,1126.13 320.836,1125.97 295.5,1125.5C 229.176,1127 162.842,1127.83 96.5,1128C 95.7476,1128.67 95.4142,1129.5 95.5,1130.5C 64.5,1130.5 33.5,1130.5 2.5,1130.5C 9.1671,1099.49 16.3338,1068.49 24,1037.5C 107.985,696.9 191.819,356.9 275.5,17.5C 381.132,16.6839 486.465,15.3506 591.5,13.5 Z"/></g>
<g><path style="opacity:1" fill="#092a13" d="M 527.5,110.5 C 555.328,109.502 583.328,109.169 611.5,109.5C 611.737,110.791 611.404,111.791 610.5,112.5C 583.187,110.508 555.52,109.842 527.5,110.5 Z"/></g>
<g><path style="opacity:1" fill="#000000" d="M 527.5,110.5 C 555.52,109.842 583.187,110.508 610.5,112.5C 607.196,126.51 603.696,140.51 600,154.5C 598.894,158.122 598.561,161.789 599,165.5C 669.944,175.438 706.944,216.104 710,287.5C 711.155,308.962 709.988,330.295 706.5,351.5C 703.629,369.376 699.962,387.043 695.5,404.5C 642.833,404.5 590.167,404.5 537.5,404.5C 532.507,425.473 527.34,446.473 522,467.5C 521.333,469.167 521.333,470.833 522,472.5C 547.2,502.362 570.867,533.362 593,565.5C 599.045,576.86 605.045,588.193 611,599.5C 612.045,605.224 613.879,610.558 616.5,615.5C 619.104,627.92 621.437,640.253 623.5,652.5C 623.5,653.833 623.5,655.167 623.5,656.5C 624.369,670.82 624.369,685.153 623.5,699.5C 623.5,700.833 623.5,702.167 623.5,703.5C 616.124,744.668 605.458,785.001 591.5,824.5C 583.993,841.186 576.16,857.853 568,874.5C 556.274,895.223 542.607,914.556 527,932.5C 516.286,943.05 505.119,953.05 493.5,962.5C 483.65,968.163 473.65,973.663 463.5,979C 457.666,980.273 452.333,982.44 447.5,985.5C 441.818,986.578 436.484,988.244 431.5,990.5C 423.251,991.537 415.251,993.203 407.5,995.5C 402.126,995.523 396.793,996.023 391.5,997C 390.572,997.388 389.905,998.055 389.5,999C 385.417,1014.83 381.417,1030.66 377.5,1046.5C 349.833,1046.5 322.167,1046.5 294.5,1046.5C 294.674,1044.14 295.007,1041.81 295.5,1039.5C 298.808,1027.27 301.974,1014.94 305,1002.5C 305.814,1000.1 305.647,997.765 304.5,995.5C 293.635,992.46 282.635,989.627 271.5,987C 232.175,973.835 207.509,947.001 197.5,906.5C 192.127,873.813 192.294,841.146 198,808.5C 206.508,766.649 216.341,725.316 227.5,684.5C 279.833,684.5 332.167,684.5 384.5,684.5C 388.507,667.472 392.674,650.472 397,633.5C 397.667,631.5 397.667,629.5 397,627.5C 374.281,597.782 351.948,567.782 330,537.5C 298.37,488.395 289.703,435.395 304,378.5C 315.097,329.319 335.597,284.652 365.5,244.5C 403.895,197.958 453.229,170.624 513.5,162.5C 518.484,145.227 523.151,127.894 527.5,110.5 Z"/></g>
<g><path style="opacity:0.004" fill="#fefffe" d="M 656.5,527.5 C 657.773,528.077 657.773,528.743 656.5,529.5C 655.537,529.03 655.537,528.363 656.5,527.5 Z"/></g>
<g><path style="opacity:1" fill="#24612f" d="M 616.5,615.5 C 617.649,615.791 618.316,616.624 618.5,618C 619.093,621.151 619.593,624.318 620,627.5C 620.667,628.167 621.333,628.833 622,629.5C 622.595,637.165 623.095,644.832 623.5,652.5C 621.437,640.253 619.104,627.92 616.5,615.5 Z"/></g>
<g><path style="opacity:1" fill="#1a4c20" d="M 623.5,656.5 C 624.972,662.601 625.639,668.935 625.5,675.5C 625.483,683.704 624.816,691.704 623.5,699.5C 624.369,685.153 624.369,670.82 623.5,656.5 Z"/></g>
<g><path style="opacity:1" fill="#277033" d="M 623.5,703.5 C 623.106,712.21 622.439,720.877 621.5,729.5C 621.709,730.086 622.043,730.586 622.5,731C 619.255,733.5 617.921,736.834 618.5,741C 619.091,745.819 619.424,750.652 619.5,755.5C 618.178,755.33 617.011,755.663 616,756.5C 615.501,760.152 615.335,763.818 615.5,767.5C 614.5,767.5 613.5,767.5 612.5,767.5C 609.079,774.435 606.246,781.769 604,789.5C 604.125,796.48 602.958,803.147 600.5,809.5C 598.984,808.196 598.318,808.696 598.5,811C 598.645,812.226 598.978,813.393 599.5,814.5C 598.683,819.317 596.016,822.65 591.5,824.5C 605.458,785.001 616.124,744.668 623.5,703.5 Z"/></g>
<g><path style="opacity:1" fill="#276431" d="M 493.5,962.5 C 492.069,965.243 489.735,966.909 486.5,967.5C 485.571,968.689 485.238,970.022 485.5,971.5C 481.267,972.106 477.267,973.606 473.5,976C 472.207,976.49 470.873,976.657 469.5,976.5C 469.64,978.124 468.973,979.29 467.5,980C 460.669,981.606 454.002,983.44 447.5,985.5C 452.333,982.44 457.666,980.273 463.5,979C 473.65,973.663 483.65,968.163 493.5,962.5 Z"/></g>
<g><path style="opacity:1" fill="#194520" d="M 431.5,990.5 C 423.757,993.016 415.757,994.683 407.5,995.5C 415.251,993.203 423.251,991.537 431.5,990.5 Z"/></g>
<g><path style="opacity:1" fill="#235027" d="M 295.5,1039.5 C 295.007,1041.81 294.674,1044.14 294.5,1046.5C 322.167,1046.5 349.833,1046.5 377.5,1046.5C 349.672,1047.5 321.672,1047.83 293.5,1047.5C 293.337,1045.14 293.503,1042.81 294,1040.5C 294.383,1039.94 294.883,1039.61 295.5,1039.5 Z"/></g>
<g><path style="opacity:0.998" fill="#398a46" d="M 459.5,1119.5 C 431.855,1125.46 403.855,1128.96 375.5,1130C 282.167,1130.5 188.834,1130.67 95.5,1130.5C 95.4142,1129.5 95.7476,1128.67 96.5,1128C 162.842,1127.83 229.176,1127 295.5,1125.5C 320.836,1125.97 346.169,1126.13 371.5,1126C 373.888,1125.7 376.055,1124.86 378,1123.5C 380.714,1124.67 383.047,1124 385,1121.5C 392.898,1121.86 400.898,1122.19 409,1122.5C 415.918,1122.62 422.751,1121.95 429.5,1120.5C 432.13,1121.38 434.797,1122.04 437.5,1122.5C 437.5,1121.5 437.5,1120.5 437.5,1119.5C 443.268,1119.69 448.935,1119.02 454.5,1117.5C 456.557,1117.44 458.223,1118.1 459.5,1119.5 Z"/></g>
</svg>
